<?xml version="1.0" encoding="utf-8"?>
<!-- Generator: Adobe Illustrator 28.3.0, SVG Export Plug-In . SVG Version: 6.00 Build 0)  -->
<svg version="1.1" id="Camada_1" xmlns="http://www.w3.org/2000/svg" xmlns:xlink="http://www.w3.org/1999/xlink" x="0px" y="0px"
	 viewBox="0 0 1000 1000" style="enable-background:new 0 0 1000 1000;" xml:space="preserve">
<style type="text/css">
	.st0{fill:url(#SVGID_1_);stroke:#B38728;stroke-width:0.25;stroke-miterlimit:10;}
	
		.st1{fill:url(#SVGID_00000180363721215541743360000003821592590369086382_);stroke:#B38728;stroke-width:0.25;stroke-miterlimit:10;}
	
		.st2{fill:url(#SVGID_00000107565585936930833350000005929977065438572976_);stroke:#B38728;stroke-width:0.25;stroke-miterlimit:10;}
	
		.st3{fill:url(#SVGID_00000005954926778760339120000000281555698418298252_);stroke:#B38728;stroke-width:0.25;stroke-miterlimit:10;}
	
		.st4{fill:url(#SVGID_00000098199826763432395910000015471068525842526877_);stroke:#B38728;stroke-width:0.25;stroke-miterlimit:10;}
	.st5{fill:url(#SVGID_00000150818212307376165360000012584612489907921060_);}
</style>
<g>
	<g>
		<radialGradient id="SVGID_1_" cx="504.944" cy="459.6221" r="0.3864" gradientUnits="userSpaceOnUse">
			<stop  offset="0.5" style="stop-color:#E6C77E"/>
			<stop  offset="1" style="stop-color:#C69B3F"/>
		</radialGradient>
		<path class="st0" d="M504.9,459.3l-0.4,0.2l0.2,0.5l0.4-0.2c0.1,0,0.1-0.1,0.2-0.2c0-0.1,0-0.1,0-0.2c0-0.1-0.1-0.1-0.2-0.1
			C505.1,459.2,505,459.3,504.9,459.3z"/>
		
			<radialGradient id="SVGID_00000029763894393580424330000010022171978566467496_" cx="496.317" cy="464.1029" r="0.6519" gradientUnits="userSpaceOnUse">
			<stop  offset="0.5" style="stop-color:#E6C77E"/>
			<stop  offset="1" style="stop-color:#C69B3F"/>
		</radialGradient>
		
			<path style="fill:url(#SVGID_00000029763894393580424330000010022171978566467496_);stroke:#B38728;stroke-width:0.25;stroke-miterlimit:10;" d="
			M496.9,464.3c0,0,0-0.1,0-0.1c0,0,0-0.1-0.1-0.1c0-0.1-0.1-0.1-0.1-0.2c0-0.1-0.1-0.1-0.1-0.2c0-0.1-0.1-0.1-0.1-0.1
			c0,0,0-0.1-0.1-0.1c0,0-0.1,0-0.1-0.1c-0.1,0-0.2,0-0.4,0l-0.3,0.1l0.6,1.2l0.3-0.1C496.8,464.6,496.8,464.5,496.9,464.3
			C496.9,464.4,496.9,464.4,496.9,464.3z"/>
		
			<radialGradient id="SVGID_00000171711951465906776010000008398525769388823446_" cx="492.4945" cy="465.4273" r="0.3865" gradientUnits="userSpaceOnUse">
			<stop  offset="0.5" style="stop-color:#E6C77E"/>
			<stop  offset="1" style="stop-color:#C69B3F"/>
		</radialGradient>
		
			<path style="fill:url(#SVGID_00000171711951465906776010000008398525769388823446_);stroke:#B38728;stroke-width:0.25;stroke-miterlimit:10;" d="
			M492.9,465.4c0-0.1,0-0.1,0-0.2c0-0.1-0.1-0.1-0.2-0.1c-0.1,0-0.2,0-0.2,0l-0.4,0.2l0.2,0.5l0.4-0.2
			C492.8,465.6,492.9,465.5,492.9,465.4z"/>
		
			<radialGradient id="SVGID_00000172438174796484540590000017666396188495360679_" cx="503.3663" cy="460.8477" r="0.3538" gradientUnits="userSpaceOnUse">
			<stop  offset="0.5" style="stop-color:#E6C77E"/>
			<stop  offset="1" style="stop-color:#C69B3F"/>
		</radialGradient>
		
			<polygon style="fill:url(#SVGID_00000172438174796484540590000017666396188495360679_);stroke:#B38728;stroke-width:0.25;stroke-miterlimit:10;" points="
			503.1,461.3 503.7,461 503.1,460.4 		"/>
		
			<radialGradient id="SVGID_00000103962846532547269750000003645827267784933796_" cx="508.4601" cy="466.1362" r="20.5402" gradientUnits="userSpaceOnUse">
			<stop  offset="0.5" style="stop-color:#E6C77E"/>
			<stop  offset="1" style="stop-color:#C69B3F"/>
		</radialGradient>
		
			<path style="fill:url(#SVGID_00000103962846532547269750000003645827267784933796_);stroke:#B38728;stroke-width:0.25;stroke-miterlimit:10;" d="
			M518.1,447.9l-29.8,13.9c-1.8,0.8-2.6,2.9-1.8,4.6l7.7,16.5c0.8,1.7,2.9,2.4,4.6,1.6l29.8-13.9c1.8-0.8,2.6-2.9,1.8-4.6l-7.7-16.5
			C521.9,447.7,519.9,447,518.1,447.9z M517.5,452.3c0.9-0.4,1.9-0.1,2.3,0.8c0.4,0.8,0,1.8-0.9,2.2s-1.9,0.1-2.3-0.8
			C516.2,453.7,516.6,452.7,517.5,452.3z M513.2,454.2c0.9-0.4,1.9-0.1,2.3,0.8c0.4,0.8,0,1.8-0.9,2.2s-1.9,0.1-2.3-0.8
			C512,455.7,512.4,454.6,513.2,454.2z M495.5,474.6l-0.7-1.5l2.4-1.1l0.7,1.5L495.5,474.6z M498.1,474l0.7,1.6l-1.3,0.6
			c-0.6,0.3-1.3,0-1.5-0.5l-0.3-0.6L498.1,474z M494.6,472.7l-0.7-1.5l2.4-1.1l0.7,1.5L494.6,472.7z M493.7,470.7l-0.3-0.6
			c-0.3-0.6,0-1.2,0.6-1.5l1.3-0.6l0.7,1.6L493.7,470.7z M503,478.1l-5.7,2.6l-0.5-1.1l5.7-2.6L503,478.1z M498.8,468.3l0.2,0.5
			l0.3,0.6l0,0l0.4,0.8l0.2,0.5l0.3,0.6l0.2,0.4l0.2,0.5l0.2,0.5l0.4,0.9l0.3,0.7l-2.2,1l-0.3-0.7l-0.4-0.9l-0.2-0.5l-0.2-0.5
			l-0.2-0.4l-0.3-0.6l-0.2-0.5l-0.4-0.8l0,0l-0.3-0.6l-0.2-0.5l-0.2-0.5l-0.5-1.1l1.3-0.6l0.9-0.4l0.4-0.2l1.2-0.5l0.2-0.1
			c0.6-0.3,1.3,0,1.5,0.5l0.3,0.6l-1.3,0.6l-1.2,0.5L498.8,468.3z M500.2,470.1l-0.7-1.5l2.4-1.1l0.7,1.5L500.2,470.1z M502.8,469.4
			l0.7,1.5l-2.4,1.1l-0.7-1.5L502.8,469.4z M502.1,474.1l-0.7-1.6l2.4-1.1l0.3,0.6c0.3,0.6,0,1.2-0.6,1.5L502.1,474.1z M510.9,474.4
			l-5.7,2.6l-0.5-1.1l5.7-2.6L510.9,474.4z M518.9,470.7l-5.7,2.6l-0.5-1.1l5.7-2.6L518.9,470.7z M526.8,467l-5.7,2.6l-0.5-1.1
			l5.7-2.6L526.8,467z M525.3,463.8L514,469l-0.5-1.1l11.3-5.3L525.3,463.8z"/>
	</g>
	
		<radialGradient id="SVGID_00000116915970469614718020000008658881360042869888_" cx="500" cy="519.0025" r="84.2739" gradientTransform="matrix(6.123234e-17 -1 0.5 3.061617e-17 240.4988 1019.0025)" gradientUnits="userSpaceOnUse">
		<stop  offset="0" style="stop-color:#E6C77E"/>
		<stop  offset="0.3268" style="stop-color:#D6B661"/>
		<stop  offset="0.7207" style="stop-color:#C69B3F"/>
	</radialGradient>
	<path style="fill:url(#SVGID_00000116915970469614718020000008658881360042869888_);" d="M406.5,533.5c-6.6,0-11.7-1.8-15.4-5.5
		s-5.5-8.9-5.5-15.6v-25.9h10.7V512c0,4.4,0.9,7.6,2.7,9.5c1.8,1.9,4.3,2.9,7.6,2.9c3.3,0,5.8-1,7.6-2.9c1.8-1.9,2.7-5.1,2.7-9.5
		v-25.5h10.6v25.9c0,6.8-1.8,12-5.5,15.6C418.2,531.7,413.1,533.5,406.5,533.5z M437.5,532.7v-32.3h8.9v8.9l-1.7-2.7
		c1.2-2.2,2.8-3.8,5-5c2.2-1.2,4.6-1.7,7.4-1.7c2.6,0,4.8,0.5,6.9,1.5c2,1,3.6,2.6,4.8,4.7c1.2,2.1,1.7,4.8,1.7,8.1v18.5h-9.4v-17
		c0-2.6-0.6-4.5-1.7-5.8c-1.1-1.2-2.8-1.9-4.8-1.9c-1.5,0-2.8,0.3-4,0.9c-1.2,0.6-2.1,1.6-2.8,2.9c-0.7,1.3-1,2.9-1,4.9v16H437.5z
		 M484.3,495.9c-1.7,0-3.1-0.5-4.2-1.5c-1.1-1-1.6-2.2-1.6-3.7c0-1.5,0.5-2.7,1.6-3.7s2.5-1.5,4.2-1.5c1.7,0,3.1,0.5,4.2,1.4
		s1.6,2.2,1.6,3.6c0,1.6-0.5,2.8-1.6,3.9C487.4,495.4,486,495.9,484.3,495.9z M479.6,532.7v-32.3h9.4v32.3H479.6z M502.2,532.7
		v-39.2h17c3.5,0,6.5,0.6,9.1,1.7c2.5,1.1,4.5,2.8,5.9,4.9c1.4,2.1,2.1,4.7,2.1,7.6c0,2.9-0.7,5.4-2.1,7.6c-1.4,2.1-3.3,3.8-5.9,4.9
		c-2.5,1.1-5.6,1.7-9.1,1.7h-11.9l4-4.1v14.9H502.2z M511.3,518.8l-4-4.3h11.4c2.8,0,4.9-0.6,6.3-1.8c1.4-1.2,2.1-2.9,2.1-5
		c0-2.2-0.7-3.8-2.1-5c-1.4-1.2-3.5-1.8-6.3-1.8h-11.4l4-4.3V518.8z M553.4,533.2c-2.5,0-4.7-0.4-6.5-1.3c-1.8-0.9-3.2-2-4.1-3.5
		c-1-1.5-1.4-3.1-1.4-5c0-1.9,0.5-3.6,1.4-5c0.9-1.4,2.4-2.6,4.5-3.4c2-0.8,4.7-1.2,8-1.2h8.6v5.5h-7.6c-2.2,0-3.7,0.4-4.5,1.1
		c-0.8,0.7-1.2,1.6-1.2,2.7c0,1.2,0.5,2.2,1.4,2.8c0.9,0.7,2.2,1,3.9,1c1.6,0,3-0.4,4.2-1.1c1.2-0.7,2.1-1.8,2.7-3.3l1.4,4.3
		c-0.7,2.1-1.9,3.7-3.7,4.7S556.3,533.2,553.4,533.2z M563.3,532.7v-6.3l-0.6-1.4v-11.3c0-2-0.6-3.6-1.8-4.7
		c-1.2-1.1-3.1-1.7-5.6-1.7c-1.7,0-3.4,0.3-5.1,0.8c-1.7,0.5-3.1,1.3-4.2,2.2l-3.4-6.5c1.8-1.2,3.9-2.2,6.4-2.9c2.5-0.7,5-1,7.6-1
		c4.9,0,8.7,1.2,11.5,3.5c2.7,2.3,4.1,5.9,4.1,10.9v18.4H563.3z M594.8,531.2c-3,0-5.7-0.7-8.1-2s-4.4-3.1-5.8-5.5
		c-1.5-2.3-2.2-5.1-2.2-8.2c0-3.2,0.7-5.9,2.2-8.3c1.5-2.3,3.4-4.1,5.8-5.4s5.1-1.9,8.1-1.9c2.7,0,5.1,0.5,7.2,1.6
		c2.1,1.1,3.7,2.8,4.9,5.1c1.2,2.3,1.7,5.2,1.7,8.8c0,3.6-0.6,6.5-1.7,8.8c-1.2,2.3-2.8,4-4.9,5.1
		C599.9,530.6,597.5,531.2,594.8,531.2z M596.3,552.5c-3,0-6-0.4-8.8-1.3s-5.2-2.2-7-3.9l3.7-7.9c1.4,1.3,3.1,2.4,5.2,3.1
		c2.1,0.8,4.2,1.2,6.2,1.2c3.3,0,5.7-0.9,7.2-2.6c1.5-1.7,2.2-4.3,2.2-7.7v-5.7l0.6-9.5l-0.1-9.6v-8.2h8.9V532
		c0,7-1.6,12.2-4.7,15.5C606.6,550.8,602.1,552.5,596.3,552.5z M596.7,523.5c1.6,0,3.1-0.3,4.4-1c1.3-0.7,2.3-1.6,3-2.8
		c0.7-1.2,1.1-2.6,1.1-4.1c0-1.6-0.4-3-1.1-4.2c-0.7-1.2-1.7-2.1-3-2.8s-2.7-1-4.4-1c-1.6,0-3.1,0.3-4.4,1c-1.3,0.7-2.3,1.6-3,2.8
		c-0.7,1.2-1.1,2.6-1.1,4.2c0,1.6,0.4,2.9,1.1,4.1c0.7,1.2,1.8,2.1,3,2.8C593.6,523.2,595,523.5,596.7,523.5z M578.7,539.2h-186
		l-3,7.5h186L578.7,539.2z"/>
</g>
</svg>
